<svg width="32" height="32" viewBox="0 0 32 32" fill="none" xmlns="http://www.w3.org/2000/svg">
  <circle cx="16" cy="16" r="16" fill="#FCFF52"/>
  <path d="M16 6C10.477 6 6 10.477 6 16C6 21.523 10.477 26 16 26C21.523 26 26 21.523 26 16C26 10.477 21.523 6 16 6ZM16 23.6C11.801 23.6 8.4 20.199 8.4 16C8.4 11.801 11.801 8.4 16 8.4C20.199 8.4 23.6 11.801 23.6 16C23.6 20.199 20.199 23.6 16 23.6Z" fill="black"/>
  <path d="M16 10.8C13.125 10.8 10.8 13.125 10.8 16C10.8 18.875 13.125 21.2 16 21.2C18.875 21.2 21.2 18.875 21.2 16C21.2 13.125 18.875 10.8 16 10.8ZM16 19.6C13.997 19.6 12.4 17.999 12.4 16C12.4 13.997 14.001 12.4 16 12.4C18.003 12.4 19.6 14.001 19.6 16C19.6 18.003 18.003 19.6 16 19.6Z" fill="black"/>
</svg>
